HIERARCHY
ROOT ui
{
	 OFFSET 0 0 0
	 CHANNELS 3 XPosition YPosition Z Position
	 EndSite
	 {
	 OFFSET 0 -1 0
	 }
}
ROOT li
{
	 OFFSET 0 0 0
	 CHANNELS 3 XPosition YPosition Z Position
	 EndSite
	 {
	 OFFSET 0 -1 0
	 }
}
ROOT ul
{
	 OFFSET 0 0 0
	 CHANNELS 3 XPosition YPosition Z Position
	 EndSite
	 {
	 OFFSET 0 -1 0
	 }
}
ROOT ll
{
	 OFFSET 0 0 0
	 CHANNELS 3 XPosition YPosition Z Position
	 EndSite
	 {
	 OFFSET 0 -1 0
	 }
}
ROOT tt
{
	 OFFSET 0 0 0
	 CHANNELS 3 XPosition YPosition Z Position
	 EndSite
	 {
	 OFFSET 0 -1 0
	 }
}
ROOT tb
{
	 OFFSET 0 0 0
	 CHANNELS 3 XPosition YPosition Z Position
	 EndSite
	 {
	 OFFSET 0 -1 0
	 }
}
ROOT td
{
	 OFFSET 0 0 0
	 CHANNELS 3 XPosition YPosition Z Position
	 EndSite
	 {
	 OFFSET 0 -1 0
	 }
}
ROOT v
{
	 OFFSET 0 0 0
	 CHANNELS 3 XPosition YPosition Z Position
	 EndSite
	 {
	 OFFSET 0 -1 0
	 }
}
ROOT bn
{
	 OFFSET 0 0 0
	 CHANNELS 3 XPosition YPosition Z Position
	 EndSite
	 {
	 OFFSET 0 -1 0
	 }
}
MOTION
Frames: 21
Frame Time: 0.002
-0.0021007130146026612	-0.001468135952949524	0		0.4398201599121094	-2.327487060546875	0		-1.1254813232421874	-0.06166770553588867	0		-0.6486931762695313	-2.343355224609375	0		1.567640869140625	-0.5450490112304688	0		3.1059931640625	0.07619914245605469	0		4.5935380859375	0.14132894897460938	0		5.644470703125	0.1196817626953125	0		-0.1974478759765625	5.9054384765625	0		
0.026842914581298827	-0.00787778902053833	0		0.4713080749511719	-2.34777783203125	0		-1.1105140380859375	-0.06820240020751953	0		-0.671865478515625	-2.34598046875	0		1.5245965576171876	-0.5595362548828124	0		3.105029296875	0.0774449462890625	0		4.58053466796875	0.14232279968261718	0		5.6426298828125	0.14932858276367186	0		-0.3318793334960938	5.884033203125	0		
-9.19642984867096E-4	0.0017814459800720216	0		0.45811962890625	-2.349230224609375	0		-1.1004691162109375	-0.07063350677490235	0		-0.66588916015625	-2.339172607421875	0		1.533049560546875	-0.5480507202148438	0		3.135984130859375	0.07403081512451172	0		4.5843974609375	0.13590869140625	0		5.65549951171875	0.1452614288330078	0		-0.31863888549804686	5.8917666015625	0		
0.029058496475219728	-0.0036594700813293458	0		0.5010080261230468	-2.345747802734375	0		-1.10827734375	-0.0657254867553711	0		-0.6789576416015625	-2.33301611328125	0		1.5264111328125	-0.5413250122070312	0		3.1155556640625	0.10351959228515625	0		4.58268798828125	0.1515098876953125	0		5.65074755859375	0.16776513671875	0		-0.19001397705078124	5.91337841796875	0		
-0.002741413116455078	0.002022650957107544	0		0.4728173522949219	-2.34497802734375	0		-1.12502490234375	-0.05865553665161133	0		-0.6472886962890625	-2.340684814453125	0		1.5454193115234376	-0.5551159057617188	0		3.102195068359375	0.08078520965576172	0		4.583763671875	0.15395648193359374	0		5.63783984375	0.14715667724609374	0		-0.20783950805664062	5.90470703125	0		
0.018323301315307617	-0.002273863077163696	0		0.4689876403808594	-2.323681884765625	0		-1.114048583984375	-0.06908616638183594	0		-0.683453369140625	-2.338127685546875	0		1.52166455078125	-0.557177490234375	0		3.105401123046875	0.08667552185058594	0		4.57363037109375	0.14249533081054688	0		5.64020458984375	0.16198855590820313	0		-0.2103485107421875	5.90474462890625	0		
-0.0025595519542694093	-0.005837109088897705	0		0.48020751953125	-2.355686767578125	0		-1.114846923828125	-0.06929423522949218	0		-0.6728076782226563	-2.34641650390625	0		1.5240621337890625	-0.5527578125	0		3.120348876953125	0.0752784423828125	0		4.57588232421875	0.14970341491699218	0		5.639654296875	0.16460887145996095	0		-0.3659658508300781	5.89046240234375	0		
0.020809078216552736	0.0018093760013580323	0		0.4820315551757812	-2.35354345703125	0		-1.1115469970703125	-0.06656342315673829	0		-0.679793701171875	-2.333391845703125	0		1.5295455322265625	-0.5454376831054687	0		3.1049296875	0.09733847045898437	0		4.57121826171875	0.1589191436767578	0		5.64207421875	0.17898173522949218	0		-0.20068478393554687	5.91453955078125	0		
-0.0059044380187988285	0.0023097410202026366	0		0.47240322875976565	-2.31922314453125	0		-1.0413455810546874	-0.07296658325195313	0		-0.6461007690429688	-2.339068603515625	0		1.545857421875	-0.5503494262695312	0		3.122914794921875	0.08173194122314453	0		4.58432763671875	0.15171157836914062	0		5.6450556640625	0.16714431762695312	0		-0.21683955383300782	5.90478857421875	0		
0.019425973892211915	0.0019063860177993774	0		0.4697259826660156	-2.346056640625	0		-1.1228668212890625	-0.06475756072998047	0		-0.6843117065429688	-2.338510986328125	0		1.5304521484375	-0.5407618408203125	0		3.120437255859375	0.0944016342163086	0		4.573634765625	0.15279898071289064	0		5.64460498046875	0.16905619812011718	0		-0.21863836669921874	5.90478466796875	0		
-0.010235651016235352	-5.769379734992981E-4	0		0.4944198303222656	-2.351368896484375	0		-1.0425997314453126	-0.07327763366699219	0		-0.6506204223632812	-2.344169189453125	0		1.5268785400390625	-0.5434258422851562	0		3.107757568359375	0.09215707397460937	0		4.57501025390625	0.15456459045410156	0		5.6441865234375	0.1707266845703125	0		-0.36874981689453123	5.87626025390625	0		
-0.010802461624145507	-5.62283992767334E-4	0		0.45421725463867185	-2.349615966796875	0		-1.1181123046875	-0.07016687774658203	0		-0.6738928833007812	-2.346864990234375	0		1.524307861328125	-0.548153564453125	0		3.101144775390625	0.0907254638671875	0		4.5772705078125	0.1461978759765625	0		5.6437998046875	0.17215377807617188	0		-0.3550242919921875	5.88497216796875	0		
0.022639272689819336	-0.0031179819107055662	0		0.482980224609375	-2.35003271484375	0		-1.1145755615234374	-0.06736383819580079	0		-0.670060791015625	-2.343007568359375	0		1.5269197998046875	-0.5440106811523437	0		3.123576904296875	0.08873220825195313	0		4.58083056640625	0.15269772338867188	0		5.6441328125	0.16985356140136718	0		-0.3401356201171875	5.892669921875	0		
-0.008750705718994141	0.002389445066452026	0		0.445302490234375	-2.315367919921875	0		-1.115045166015625	-0.06747833251953125	0		-0.68115283203125	-2.333898193359375	0		1.54647900390625	-0.5451876831054687	0		3.09343994140625	0.11053257751464844	0		4.58058447265625	0.1681533203125	0		5.643115234375	0.17430288696289062	0		-0.22399014282226562	5.904712890625	0		
-0.009185620307922363	0.002378488063812256	0		0.4949160461425781	-2.324157470703125	0		-1.0563843994140625	-0.0625414924621582	0		-0.69533349609375	-2.329735107421875	0		1.50819091796875	-0.5384547729492187	0		3.095604248046875	0.08672435760498047	0		4.57782666015625	0.14954515075683594	0		5.6334736328125	0.16504350280761718	0		-0.22489785766601564	5.9046845703125	0		
-0.007711338043212891	-0.005670476913452149	0		0.44071939086914064	-2.3202666015625	0		-1.1317496337890625	-0.060404151916503904	0		-0.6877655639648438	-2.34092333984375	0		1.519859619140625	-0.536574462890625	0		3.099284423828125	0.09183179473876953	0		4.57253662109375	0.15688963317871094	0		5.64031982421875	0.1635919189453125	0		-0.37315643310546875	5.8750478515625	0		
0.011994449615478516	-0.0020181310176849367	0		0.4700888671875	-2.3437529296875	0		-1.11621923828125	-0.06773540496826172	0		-0.6859861450195313	-2.33900927734375	0		1.5192998046875	-0.5505276489257812	0		3.109841064453125	0.0867691650390625	0		4.566287109375	0.16416644287109375	0		5.63588427734375	0.17798582458496093	0		-0.3586300048828125	5.88376416015625	0		
-0.010256059646606445	0.0023111379146575927	0		0.44592391967773437	-2.3383779296875	0		-1.1165355224609375	-0.0677949447631836	0		-0.6821549072265625	-2.334121337890625	0		1.5251103515625	-0.543607421875	0		3.087830810546875	0.10618789672851563	0		4.56983447265625	0.1562109375	0		5.63859423828125	0.1902194366455078	0		-0.21359059143066406	5.9153759765625	0		
0.015460664749145508	0.0018618600368499757	0		0.5235446166992187	-2.347658935546875	0		-1.047758544921875	-0.0649588394165039	0		-0.682394775390625	-2.334161865234375	0		1.52483984375	-0.543610107421875	0		3.11820556640625	0.084713623046875	0		4.5787607421875	0.16911326599121093	0		5.63546337890625	0.17833763122558594	0		-0.22714791870117187	5.90455517578125	0		
-0.010778074264526366	0.0022528300285339356	0		0.44178237915039065	-2.318363037109375	0		-1.121103759765625	-0.07081505584716796	0		-0.6616068725585937	-2.333535400390625	0		1.5236177978515626	-0.5426124877929688	0		3.11207666015625	0.0918025894165039	0		4.5762109375	0.15015139770507813	0		5.63947802734375	0.16434934997558595	0		-0.2274320831298828	5.9045244140625	0		
0.010948888778686524	-0.002130604982376099	0		0.46345849609375	-2.32574658203125	0		-1.1331461181640625	-0.06064974975585938	0		-0.699809814453125	-2.33294921875	0		1.5185093994140626	-0.5365624389648438	0		3.103904541015625	0.09389998626708984	0		4.571119140625	0.15719816589355468	0		5.6322109375	0.16629969787597657	0		-0.24279122924804689	5.89473974609375	0		
